<svg xmlns="http://www.w3.org/2000/svg" xmlns:xlink="http://www.w3.org/1999/xlink" viewBox="0 0 100 125" version="1.1" x="0px" y="0px">
    <g>
        <g fill-rule="nonzero" fill="#000000">
            <path d="M50,21 C54.2902219,21 57.7945819,24.3782053 57.9912913,28.6155668 C65.4662593,31.7766937 70.5,39.1512544 70.5,47.4992494 L70.5,59.0191677 C73.850837,59.2759629 76.5,62.0810352 76.5,65.5 C76.5,69.0878573 73.5829191,72 69.9901068,72 L30.0098932,72 C26.4150296,72 23.5,69.0915421 23.5,65.5 C23.5,62.0820408 26.1447986,59.2757073 29.5,59.0191249 L29.5,47.4992494 C29.5,39.149506 34.5335681,31.7760578 42.0087232,28.6153471 C42.205684,24.3771544 45.7131673,21 50,21 Z M45.2628152,32.7361367 C38.9009915,34.7745005 34.5,40.7102511 34.5,47.4992494 L34.5,59.4982567 C34.5,61.9828561 32.4840955,64 30.0020869,64 C29.1742017,64 28.5,64.6743732 28.5,65.5 C28.5,66.327589 29.1739303,67 30.0098932,67 L69.9901068,67 C70.82339,67 71.5,66.3245354 71.5,65.5 C71.5,64.6755733 70.823094,64 69.9979131,64 C67.5116547,64 65.5,61.9893219 65.5,59.4982567 L65.5,47.4992494 C65.5,40.7119623 61.098631,34.7748144 54.7370775,32.7362211 L53,32.1795654 L53,28.9915416 C53,27.3424215 51.6561476,26 50,26 C48.345898,26 47,27.3427858 47,28.9915416 L47,32.179533 L45.2628152,32.7361367 Z M40.5,72 L45.5,72 C45.5,74.4852814 47.5147186,76.5 50,76.5 C52.4852814,76.5 54.5,74.4852814 54.5,72 L59.5,72 C59.5,77.2467051 55.2467051,81.5 50,81.5 C44.7532949,81.5 40.5,77.2467051 40.5,72 Z" />
        </g>
    </g>
</svg>